<?xml version="1.0" standalone="no"?>
<!DOCTYPE svg PUBLIC "-//W3C//DTD SVG 20010904//EN"
 "http://www.w3.org/TR/2001/REC-SVG-20010904/DTD/svg10.dtd">
<svg version="1.0" xmlns="http://www.w3.org/2000/svg"
 width="500.000000pt" height="500.000000pt" viewBox="0 0 500.000000 500.000000"
 preserveAspectRatio="xMidYMid meet">

<g transform="translate(0.000000,500.000000) scale(0.100000,-0.100000)"
fill="#000000" stroke="none">
<path d="M1243 4753 c-10 -4 -13 -314 -13 -1504 l0 -1499 -330 0 -330 0 0
-245 0 -245 330 0 330 0 2 -522 3 -523 865 -3 c1030 -3 1133 2 1383 68 428
113 748 403 881 797 58 173 70 255 70 473 1 210 -11 293 -60 445 -128 399
-453 683 -904 793 -220 54 -247 55 -993 59 l-697 4 2 707 3 707 1093 3 1092 2
0 239 c0 209 -2 240 -16 245 -19 7 -2693 7 -2711 -1z m1898 -2408 c253 -33
451 -139 590 -312 142 -179 196 -395 154 -618 -66 -352 -322 -612 -686 -697
-92 -22 -109 -22 -754 -23 l-660 0 -3 282 -2 283 577 2 578 3 0 240 0 240
-577 3 -578 2 0 305 0 305 628 0 c483 0 651 -4 733 -15z"/>
</g>
</svg>
